<svg width="55" height="48" viewBox="0 0 55 48" fill="none" xmlns="http://www.w3.org/2000/svg">
<path d="M33.7188 46.5L1.34766 24.2932M33.7188 46.5L40.5274 16.5867M33.7188 46.5L53.3392 13.1531M33.7188 46.5L15.7823 21.2524M1.34766 24.2932L5.23999 9.26873M1.34766 24.2932L15.7823 21.2524M40.5274 16.5867L15.7823 21.2524M40.5274 16.5867L24.7872 1.5M40.5274 16.5867L43.895 1.5M40.5274 16.5867L53.3392 13.1531M5.23999 9.26873L15.7823 21.2524M5.23999 9.26873L24.7872 1.5M15.7823 21.2524L24.7872 1.5M24.7872 1.5L43.895 1.5M43.895 1.5L53.3392 13.1531" stroke="#D9F06A" stroke-width="1.5"/>
</svg>
