<svg width="55" height="48" viewBox="0 0 55 48" fill="none" xmlns="http://www.w3.org/2000/svg">
<path d="M15.25 25.5603C16.7656 23.3765 22.0317 20.6742 26.3139 23.342M44.7502 19.7118C42.1223 18.1571 36.9513 18.7494 34.9997 22.0232M19.8277 33.2028C24.6596 43.6981 45.8523 38.6639 44.2137 27.5567C44.2137 27.5567 39.5792 29.5249 32.9671 31.0558C26.355 32.5867 19.8277 33.2028 19.8277 33.2028ZM53.2369 22.8042C54.608 36.5641 41.9881 46.3319 27.7186 46.4972C13.4491 46.6625 3.72447 39.4355 1.5925 26.7292C-0.539477 14.0229 11.5831 2.60776 25.0612 1.58343C38.5394 0.559092 51.8658 9.04435 53.2369 22.8042Z" stroke="#D9F06A" stroke-width="2"/>
</svg>
