<svg width="55" height="48" viewBox="0 0 55 48" fill="none" xmlns="http://www.w3.org/2000/svg">
<path d="M23.4075 1.54682C12.5839 2.51148 22.3031 17.5703 22.3031 17.5703C22.3031 17.5703 0.699943 3.19872 1.36259 23.7237C2.02525 44.2486 21.6846 28.3903 21.6846 28.3903C21.6846 28.3903 4.7643 42.8445 21.6846 46.1483C38.6048 49.4521 30.9178 28.3903 30.9178 28.3903C30.9178 28.3903 41.123 46.1483 51.0189 33.759C60.9148 21.3697 35.9541 21.7001 35.9541 21.7001C35.9541 21.7001 60.5192 21.0393 49.7377 7.57628C38.9563 -5.88677 30.9178 14.8447 30.9178 14.8447C30.9178 14.8447 34.2312 0.582156 23.4075 1.54682Z" stroke="#D9F06A" stroke-width="2"/>
</svg>
