<svg width="282" height="666" viewBox="0 0 282 666" fill="none" xmlns="http://www.w3.org/2000/svg">
<g clip-path="url(#clip0_459_3674)">
<path d="M70.7006 19.7005C62.6006 30.5005 56.1006 39.8005 56.4006 40.4005C56.8006 41.4005 372.201 368.5 392.601 389L402.001 398.5V362V325.5L389.401 312.5C382.501 305.3 366.901 289.1 354.701 276.5C342.501 263.8 329.801 250.8 326.501 247.4C323.201 244.1 310.401 230.8 298.001 217.9C285.701 205.1 273.101 192 270.001 188.9C267.001 185.9 254.401 172.8 242.001 159.9C229.701 147 216.701 133.7 213.301 130.3C209.801 126.9 207.001 123.8 207.001 123.5C207.001 123.1 209.801 124.4 213.301 126.3C216.701 128.2 258.201 150.6 305.501 176C352.801 201.4 393.901 223.5 396.801 225.1L402.001 228L401.801 198.9L401.501 169.8L331.001 131.8C292.201 111 256.001 91.5005 250.501 88.6005C245.001 85.6005 237.601 81.7005 234.001 79.7005C203.101 63.0005 85.9006 0.000488281 85.7006 0.000488281C85.6006 0.000488281 78.8006 8.90048 70.7006 19.7005Z" fill="#B6CB28"/>
<path d="M13.5999 311.7C6.49988 322.6 0.699879 331.9 0.599879 332.5C0.499879 333 28.1999 360.9 61.9999 394.5C193.3 524.7 235.4 566.8 233.5 566C232.4 565.5 203 553 168.1 538.1C133.2 523.2 104.6 511.1 104.4 511.2C103 512.8 84.9999 557.4 85.6999 558C87.1999 559.3 336.5 665.4 338.2 665.4C339.4 665.5 344.5 658.8 353.5 645.5L367.1 625.5L312.8 571.5C282.9 541.8 228.3 487.7 191.5 451.2C131.2 391.3 125.1 385.1 129.6 386.8C132.3 387.9 193.9 412.5 266.5 441.5C339.1 470.5 399.3 494.5 400.3 494.7C401.9 495.2 402 493.6 401.8 467.9L401.5 440.5L215.5 366.3C113.2 325.5 28.7999 292.1 27.9999 292C27.0999 292 20.9999 300.4 13.5999 311.7Z" fill="#B6CB28"/>
</g>
<defs>
<clipPath id="clip0_459_3674">
<rect width="402" height="666" fill="white"/>
</clipPath>
</defs>
</svg>
