<svg width="55" height="48" viewBox="0 0 55 48" fill="none" xmlns="http://www.w3.org/2000/svg">
<path d="M38.8234 23.6372C28.8094 20.9625 22.6395 25.7256 27.8448 29.2342M50.2425 36.3634C48.3207 38.1285 44.6512 39.3746 38.1309 39.0786C31.9535 38.7981 28.7841 37.225 27.4088 35.3374M50.2425 36.3634C51.1655 39.5656 49.841 45.8345 37.4826 45.002C34.4366 44.7968 32.1649 44.288 30.4994 43.5928M50.2425 36.3634C52.4111 34.3718 52.1326 31.3619 51.4238 29.4989M27.4088 35.3374C25.9152 33.2874 26.6554 30.7776 27.8448 29.2342M27.4088 35.3374C25.9803 37.5996 25.4074 41.4673 30.4994 43.5928M10.8477 19.8741C11.8581 19.8741 12.7793 19.7859 13.6227 19.6221M30.8183 43.5187C30.7122 43.5439 30.6059 43.5686 30.4994 43.5928M13.6227 19.6221C24.9814 17.4158 22.0449 0.808132 32.9952 1.52237C44.2416 2.25593 34.3694 18.4069 34.3694 18.4069C40.8566 17.6856 52.9704 18.7957 53.3279 24.9576C53.4399 26.8869 52.7101 28.3797 51.4238 29.4989M13.6227 19.6221C13.6227 19.6221 12.4685 16.7208 9.27292 16.5326C-2.34155 15.8488 0.123042 44.709 8.24153 46.2796C14.2506 47.4421 15.9508 43.6266 15.9508 43.6266M15.9508 43.6266C14.1605 43.1251 12.6648 42.4082 11.4534 41.4928M15.9508 43.6266C19.8178 44.7101 25.3564 44.7593 30.4994 43.5928M51.4238 29.4989C46.2512 33.9989 33.3519 32.9463 27.8448 29.2342" stroke="#B78BF7" stroke-width="2"/>
</svg>
