<svg width="28" height="28" viewBox="0 0 28 28" fill="none" xmlns="http://www.w3.org/2000/svg">
<path d="M3 13.56C3 8.58197 3 6.09295 4.54648 4.54648C6.09295 3 8.58197 3 13.56 3H14.44C19.418 3 21.907 3 23.4535 4.54648C25 6.09295 25 8.58197 25 13.56V14.44C25 19.418 25 21.907 23.4535 23.4535C21.907 25 19.418 25 14.44 25H13.56C8.58197 25 6.09295 25 4.54648 23.4535C3 21.907 3 19.418 3 14.44V13.56Z" fill="white"/>
<path d="M14.7057 18.9002C9.68326 18.9002 6.81858 15.4467 6.69922 9.7002H9.21501C9.29765 13.918 11.1523 15.7046 12.6214 16.073V9.7002H14.9904V13.3378C16.4411 13.1813 17.9651 11.5236 18.4793 9.7002H20.8482C20.4534 11.9472 18.8007 13.6049 17.6254 14.2864C18.8007 14.8389 20.683 16.2848 21.3992 18.9002H18.7915C18.2314 17.1504 16.8359 15.7967 14.9904 15.6125V18.9002H14.7057Z" fill="#0077FF"/>
</svg>
